<svg xmlns="http://www.w3.org/2000/svg" viewBox="0 0 120 140" fill="none">
  <defs>
    <linearGradient id="g" x1="60" y1="0" x2="60" y2="140" gradientUnits="userSpaceOnUse">
      <stop offset="0%" stop-color="#ffe08a"/>
      <stop offset="45%" stop-color="#ff9a3c"/>
      <stop offset="100%" stop-color="#e4572e"/>
    </linearGradient>
  </defs>
  <path fill="url(#g)" d="M62 8c10 18-6 29-7 40-1 11 10 17 19 11 12-8 6-25 6-25s22 24 9 54c-7 15-23 26-40 26-19 0-33-12-36-29-4-20 6-33 17-45 13-14 10-33 10-33s13 7 22 1z"/>
  <path fill="#ffd166" fill-opacity="0.9" d="M62 40c2 9-7 18 1 25 4 4 10 2 12-3 3-6-1-12-1-12s10 10 4 24c-4 9-13 15-23 15-11 0-19-7-21-17-2-12 5-20 12-27 8-8 6-20 6-20s7 4 10 15z"/>
</svg>
